<?xml version="1.0" encoding="UTF-8"?> <svg xmlns="http://www.w3.org/2000/svg" width="446" height="152" viewBox="0 0 446 152" fill="none"><g clip-path="url(#clip0_239_336)"><path d="M176.32 100.58H191.77V77H177.42V66H203.36V100.58H216.6V111.58H176.32V100.58ZM206.21 52.48C206.219 53.6652 205.984 54.8395 205.52 55.93C205.085 56.9667 204.445 57.9053 203.64 58.69C202.823 59.4686 201.871 60.0921 200.83 60.53C199.761 60.9855 198.612 61.2203 197.45 61.2203C196.288 61.2203 195.139 60.9855 194.07 60.53C193.049 60.0842 192.114 59.4613 191.31 58.69C190.502 57.908 189.862 56.9687 189.43 55.93C188.976 54.8364 188.743 53.664 188.743 52.48C188.743 51.296 188.976 50.1236 189.43 49.03C189.864 47.9928 190.504 47.054 191.31 46.27C192.115 45.5018 193.049 44.8822 194.07 44.44C195.137 43.9782 196.287 43.74 197.45 43.74C198.613 43.74 199.763 43.9782 200.83 44.44C201.87 44.8743 202.822 45.4944 203.64 46.27C204.44 47.0478 205.079 47.9755 205.52 49C205.987 50.1001 206.222 51.2849 206.21 52.48Z" fill="white"></path><path d="M232.15 47.24H272.8V58.83H244.29V73.55H271.7V85.13H244.29V100H273.9V111.59H232.15V47.24Z" fill="white"></path><path d="M318.32 66H331.11L320.11 87.43V89.08L331.79 111.62H318.42L309.86 93.78H308.21L299.66 111.62H286.32L298 89.08V87.43L286.87 66H299.75L308.21 82.74H309.86L318.32 66Z" fill="white"></path><path d="M354.56 92.58C354.62 93.8811 354.961 95.1537 355.56 96.31C356.149 97.4449 356.966 98.4458 357.96 99.25C358.999 100.096 360.181 100.749 361.45 101.18C362.798 101.645 364.214 101.879 365.64 101.87C367.946 102.011 370.244 101.487 372.26 100.36C373.675 99.472 374.82 98.2131 375.57 96.72L385.5 102.24C384.867 103.53 384.096 104.747 383.2 105.87C382.123 107.22 380.833 108.385 379.38 109.32C377.616 110.453 375.696 111.323 373.68 111.9C371.122 112.611 368.475 112.947 365.82 112.9C362.617 112.939 359.435 112.376 356.44 111.24C353.691 110.184 351.199 108.555 349.13 106.46C347.016 104.283 345.387 101.682 344.35 98.83C343.164 95.559 342.585 92.099 342.64 88.62V88.06C342.599 84.7854 343.211 81.5353 344.44 78.5C345.555 75.7337 347.23 73.2279 349.36 71.14C351.468 69.103 353.95 67.4934 356.67 66.4C359.531 65.2528 362.588 64.6753 365.67 64.7C369.155 64.6064 372.615 65.3182 375.78 66.78C378.446 68.0317 380.828 69.8148 382.78 72.02C384.58 74.0622 385.957 76.4416 386.83 79.02C387.663 81.3993 388.099 83.8993 388.12 86.42V92.58H354.56ZM365.5 75.2C362.92 75.0851 360.382 75.8816 358.33 77.45C356.62 78.7658 355.364 80.5842 354.74 82.65H376.26C376.071 81.576 375.668 80.5508 375.075 79.6352C374.483 78.7197 373.713 77.9324 372.81 77.32C370.668 75.8388 368.102 75.0947 365.5 75.2Z" fill="white"></path><path d="M445.15 94.88C444.288 99.9676 441.665 104.59 437.74 107.94C433.853 111.273 428.66 112.94 422.16 112.94C418.95 112.965 415.759 112.434 412.73 111.37C409.922 110.398 407.34 108.867 405.14 106.87C402.947 104.841 401.221 102.361 400.08 99.6C398.81 96.4776 398.184 93.1305 398.24 89.76V88.66C398.19 85.2608 398.815 81.8854 400.08 78.73C401.239 75.8851 402.98 73.3136 405.19 71.18C407.385 69.0882 409.98 67.4623 412.82 66.4C415.806 65.2827 418.972 64.7202 422.16 64.74C428.527 64.74 433.69 66.4067 437.65 69.74C441.619 73.067 444.277 77.6954 445.15 82.8L433.74 85.8C433.403 83.1389 432.172 80.6711 430.25 78.8C428.29 76.8 425.53 75.8 421.97 75.8C420.361 75.7929 418.767 76.1056 417.28 76.72C415.83 77.3239 414.517 78.2151 413.42 79.34C412.277 80.5295 411.386 81.9377 410.8 83.48C410.125 85.224 409.786 87.08 409.8 88.95V89.51C409.778 91.3483 410.117 93.173 410.8 94.88C411.38 96.3607 412.274 97.6981 413.42 98.8C414.527 99.8434 415.843 100.641 417.28 101.14C418.788 101.666 420.374 101.929 421.97 101.92C425.53 101.92 428.243 101.03 430.11 99.25C432.079 97.294 433.353 94.7479 433.74 92L445.15 94.88Z" fill="white"></path><path d="M63.22 30.13C57.7733 30.6659 52.7509 33.3071 49.2226 37.491C45.6943 41.6749 43.9388 47.071 44.33 52.53C44.4218 53.983 44.1098 55.433 43.4286 56.7196C42.7473 58.0062 41.7233 59.0793 40.47 59.82C39.1995 60.596 37.7387 61.0045 36.25 61C34.8397 60.9684 33.4617 60.5722 32.25 59.85C28.9099 57.7382 25.0417 56.6117 21.09 56.6C20.2673 56.6152 19.4461 56.6753 18.63 56.78C13.4759 57.5902 8.80802 60.2899 5.53551 64.3533C2.263 68.4167 0.620257 73.5528 0.927288 78.7611C1.23432 83.9694 3.46913 88.8769 7.1964 92.5277C10.9237 96.1785 15.8765 98.311 21.09 98.51C21.7579 98.5258 22.4262 98.4958 23.09 98.42C27.9622 97.953 32.5182 95.7989 35.971 92.3297C39.4237 88.8606 41.5562 84.2944 42 79.42C42.09 78.3085 42.09 77.1915 42 76.08C41.9069 74.6257 42.2194 73.1741 42.9027 71.887C43.586 70.5998 44.6132 69.5277 45.87 68.79C47.1103 68.0239 48.5423 67.6252 50 67.64C51.4164 67.6294 52.8055 68.0288 54 68.79C57.3674 70.9022 61.265 72.0154 65.24 72C66.0594 72.0449 66.8806 72.0449 67.7 72C72.9643 71.3097 77.7717 68.651 81.1547 64.5589C84.5377 60.4669 86.2451 55.2453 85.9334 49.9451C85.6216 44.6449 83.3137 39.6595 79.4743 35.9923C75.6349 32.3251 70.5489 30.2484 65.24 30.18C64.5741 30.1358 63.9059 30.1358 63.24 30.18" fill="#FCD15A"></path><path d="M107.42 56.66C101.972 57.1959 96.9476 59.8385 93.4191 64.0246C89.8905 68.2107 88.1362 73.6093 88.5301 79.07C88.6012 80.4984 88.288 81.9198 87.6232 83.1861C86.9584 84.4524 85.9662 85.5173 84.7501 86.27L84.6601 86.36C83.3909 87.1345 81.9267 87.53 80.4401 87.5C79.0316 87.4661 77.6549 87.0737 76.4401 86.36C73.173 84.2709 69.3887 83.133 65.5113 83.0737C61.6338 83.0143 57.8165 84.036 54.487 86.0241C51.1575 88.0123 48.4475 90.8883 46.6606 94.33C44.8737 97.7716 44.0806 101.643 44.3701 105.51C44.4619 106.963 44.1499 108.413 43.4687 109.7C42.7874 110.986 41.7634 112.059 40.5101 112.8C39.2301 113.59 37.7543 114.006 36.2501 114C34.8399 113.968 33.4618 113.572 32.2501 112.85C28.91 110.738 25.0418 109.612 21.0901 109.6C20.2674 109.615 19.4462 109.675 18.6301 109.78C13.4353 110.537 8.71246 113.213 5.39239 117.279C2.07231 121.346 0.395781 126.509 0.69317 131.75C0.990559 136.991 3.2403 141.931 6.99905 145.596C10.7578 149.261 15.7529 151.385 21.0001 151.55C21.668 151.564 22.3361 151.534 23.0001 151.46C27.8603 150.99 32.4021 148.831 35.8366 145.36C39.271 141.889 41.3811 137.325 41.8001 132.46C41.8901 131.352 41.8901 130.238 41.8001 129.13C41.7221 127.689 42.0418 126.254 42.7243 124.982C43.4069 123.711 44.426 122.651 45.6701 121.92L45.7601 121.83C47.0372 121.059 48.5087 120.67 50.0001 120.71C51.4148 120.701 52.8025 121.097 54.0001 121.85C57.3377 123.967 61.2076 125.094 65.1601 125.1C65.9501 125.1 66.7401 125.02 67.5301 125.02C72.9304 124.475 77.9003 121.83 81.3685 117.655C84.8366 113.479 86.5251 108.109 86.0701 102.7C86.0112 101.607 86.1772 100.514 86.5578 99.4874C86.9385 98.4612 87.5257 97.524 88.283 96.7338C89.0404 95.9436 89.9519 95.3172 90.9611 94.8935C91.9702 94.4697 93.0556 94.2575 94.1501 94.27C95.5648 94.2614 96.9525 94.657 98.1501 95.41C101.488 97.5258 105.358 98.6526 109.31 98.66C110.133 98.6448 110.954 98.5847 111.77 98.48C117.034 97.7897 121.842 95.131 125.225 91.0389C128.608 86.9469 130.315 81.7253 130.003 76.4251C129.692 71.1249 127.384 66.1395 123.544 62.4723C119.705 58.8051 114.619 56.7284 109.31 56.66C108.67 56.5696 108.02 56.5696 107.38 56.66" fill="#FCD15A"></path><path d="M36.2701 36.9L35.3801 32.55H35.4701C35.8271 32.4074 36.1522 32.1951 36.4261 31.9253C36.7001 31.6556 36.9175 31.3339 37.0655 30.979C37.2136 30.6242 37.2894 30.2434 37.2885 29.859C37.2875 29.4745 37.2099 29.0941 37.0601 28.74L40.4301 26.52C40.6101 26.7 40.7901 26.79 40.8801 26.96L36.7101 37C36.5704 36.9426 36.4211 36.912 36.2701 36.91V36.9ZM36.3501 21L39.7201 23.22C39.4604 23.9372 39.4604 24.7228 39.7201 25.44L36.3501 27.65C35.8383 27.1478 35.1637 26.8454 34.4482 26.7977C33.7328 26.75 33.0239 26.9601 32.4501 27.39L30.6801 25.79C30.9806 25.3475 31.1413 24.8249 31.1413 24.29C31.1413 23.7551 30.9806 23.2325 30.6801 22.79L32.4501 21.19C32.9713 21.5638 33.5894 21.7791 34.2301 21.81C34.6205 21.8403 35.0128 21.7843 35.3792 21.646C35.7455 21.5078 36.077 21.2906 36.3501 21.01V21ZM27.7501 13.74L28.2801 13.47L31.9201 17.2C31.6193 17.5939 31.4277 18.0601 31.3645 18.5517C31.3013 19.0433 31.3687 19.5428 31.5601 20C31.6501 20.17 31.6501 20.26 31.7401 20.44L30.0001 22C29.5077 21.6195 28.9069 21.4057 28.2848 21.3895C27.6627 21.3733 27.0516 21.5556 26.5401 21.91L23.5401 18.91C23.8945 18.3985 24.0768 17.7874 24.0606 17.1653C24.0444 16.5432 23.8306 15.9424 23.4501 15.45L25.1401 13.5C25.5279 13.7583 25.973 13.9179 26.4366 13.965C26.9002 14.012 27.3682 13.9451 27.8001 13.77L27.7501 13.74ZM36.9401 20.07C37.0884 19.7144 37.1646 19.3329 37.1643 18.9476C37.164 18.5624 37.0872 18.181 36.9384 17.8256C36.7895 17.4703 36.5716 17.148 36.2972 16.8775C36.0229 16.6071 35.6975 16.3938 35.3401 16.25H35.2001L36.0901 11.73C36.2715 11.7443 36.4536 11.7134 36.6201 11.64L40.7001 21.91C40.5201 22 40.3501 22.17 40.1701 22.26L36.9401 20.07ZM7.31008 12.07C7.67008 11.9 8.73008 11.36 8.91008 10.48L12.9101 11.27C12.8956 11.8689 13.026 12.4623 13.2901 13L9.66008 16.59C9.17446 16.2455 8.59542 16.0572 8.00008 16.05L7.31008 12.07ZM29.0001 12.68C29.3632 12.129 29.5482 11.4797 29.5301 10.82L33.4401 9.93C33.5782 10.2779 33.7887 10.5925 34.0577 10.8528C34.3266 11.1131 34.6479 11.3133 35.0001 11.44L34.1401 16C33.7482 16.0124 33.359 16.0694 32.9801 16.17C32.8229 16.2417 32.6751 16.3323 32.5401 16.44L29.0001 12.68ZM22.1701 5.68L24.4701 9C23.992 9.50999 23.7114 10.1736 23.6784 10.8718C23.6454 11.5701 23.8623 12.2572 24.2901 12.81L22.6101 14.81C22.1518 14.5534 21.6353 14.4186 21.1101 14.4186C20.5848 14.4186 20.0684 14.5534 19.6101 14.81L18.0801 13C18.51 12.4261 18.7201 11.7173 18.6724 11.0018C18.6247 10.2864 18.3223 9.61173 17.8201 9.1L20.0001 5.77C20.2881 5.86499 20.5873 5.92214 20.8901 5.94C21.3174 5.94481 21.7407 5.85606 22.1301 5.68H22.1701ZM9.00008 9.4V8.87L18.5301 4.7C18.7001 4.88 18.8801 5.14 19.0601 5.32L16.8401 8.69C16.4836 8.53715 16.1 8.45737 15.7122 8.45538C15.3243 8.4534 14.94 8.52924 14.5819 8.67842C14.2239 8.82761 13.8994 9.0471 13.6277 9.32392C13.356 9.60073 13.1426 9.92924 13.0001 10.29L9.00008 9.4ZM23.0001 5.06C23.1511 4.90472 23.27 4.72123 23.3501 4.52L33.2001 8.25V8.87L29.3001 9.87C29.1489 9.51964 28.93 9.20256 28.656 8.93694C28.3821 8.67132 28.0584 8.46238 27.7035 8.32211C27.3486 8.18183 26.9696 8.11297 26.588 8.11947C26.2065 8.12597 25.83 8.20771 25.4801 8.36H25.3901L23.0001 5.06ZM20.8701 0.06C20.1941 0.0710779 19.5425 0.314815 19.0252 0.75015C18.5079 1.18549 18.1565 1.78581 18.0301 2.45C17.9398 2.86178 17.9398 3.28822 18.0301 3.7L8.59008 7.81C8.47142 7.60888 8.32308 7.42683 8.15008 7.27C7.57212 6.88694 6.87931 6.7159 6.18948 6.78598C5.49966 6.85607 4.8554 7.16294 4.36629 7.65441C3.87718 8.14588 3.57341 8.7916 3.50664 9.48176C3.43988 10.1719 3.61424 10.8639 4.00008 11.44C4.09008 11.53 4.18008 11.62 4.27008 11.62C1.90293 14.6692 0.449947 18.3276 0.0800781 22.17V24.3C0.0800781 29.9226 2.31364 35.3149 6.28941 39.2907C10.2652 43.2664 15.6575 45.5 21.2801 45.5C21.9894 45.4831 22.6972 45.4264 23.4001 45.33C27.3579 44.9063 31.1138 43.3665 34.2301 40.89C34.2301 40.98 34.3101 40.98 34.3101 41.07C34.7808 41.5408 35.4193 41.8052 36.0851 41.8052C36.7508 41.8052 37.3893 41.5408 37.8601 41.07C38.3308 40.5992 38.5953 39.9608 38.5953 39.295C38.5953 38.6292 38.3308 37.9908 37.8601 37.52C37.7593 37.4111 37.641 37.3198 37.5101 37.25L41.6801 27.25C42.4203 27.4023 43.1908 27.2626 43.8305 26.8603C44.4702 26.4579 44.9297 25.8239 45.113 25.0907C45.2963 24.3576 45.1892 23.5819 44.8141 22.9258C44.439 22.2698 43.8249 21.784 43.1001 21.57H43.0001C42.7694 21.5045 42.5295 21.4774 42.2901 21.49C42.1096 21.4764 41.9285 21.5037 41.7601 21.57L37.6801 11.26C38.096 11.1048 38.4723 10.8592 38.7818 10.5409C39.0913 10.2226 39.3263 9.8396 39.4699 9.4195C39.6135 8.9994 39.662 8.55267 39.612 8.11154C39.562 7.67041 39.4147 7.24587 39.1808 6.86855C38.9469 6.49124 38.6321 6.17054 38.2592 5.92961C37.8863 5.68867 37.4646 5.5335 37.0245 5.47528C36.5844 5.41706 36.1368 5.45725 35.7141 5.59295C35.2914 5.72865 34.9041 5.95648 34.5801 6.26C34.1632 6.49779 33.8179 6.84314 33.5801 7.26L23.7601 3.46C23.8351 3.08658 23.8345 2.70191 23.7584 2.32872C23.6822 1.95553 23.532 1.60139 23.3167 1.28723C23.1013 0.973064 22.8252 0.705254 22.5046 0.499621C22.184 0.293988 21.8254 0.154704 21.4501 0.09C21.2801 0.09 21.1001 0 20.9201 0L20.8701 0.06Z" fill="#FCD15A"></path></g><defs><clipPath id="clip0_239_336"><rect width="445.15" height="151.55" fill="white"></rect></clipPath></defs></svg> 
